<svg xmlns="http://www.w3.org/2000/svg" xmlns:xlink="http://www.w3.org/1999/xlink" width="1067.4068mm" height="587.3775mm" viewBox="0 0 3025.72 1665.0072"><defs><style>.a{fill:none;}.b{clip-path:url(#a);}.c{fill:#012169;}.d{fill:#fff;}.e{fill:#c8102e;}</style><clipPath id="a" transform="translate(82.08 122.9405)"><rect class="a" width="2834.6457" height="1417.3228"/></clipPath></defs><title>English_Flag</title><g class="b"><rect class="c" x="63.2" y="106.2" width="2862.72" height="1454.4"/><polygon class="d" points="2850.607 2.871 31.578 1412.385 31.578 1593.24 155.018 1665.007 2974.047 255.492 3008.496 68.897 2850.607 2.871"/><polygon class="d" points="149.277 0 2971.177 1412.385 3025.72 1607.593 2844.866 1665.007 22.966 252.622 0 51.673 149.277 0"/><polygon class="e" points="2870.702 40.19 1693.714 631.554 1868.827 651.649 2945.34 111.957 2870.702 40.19"/><polygon class="e" points="43.061 209.561 858.34 620.072 1073.643 620.072 54.543 109.087 43.061 209.561"/><polygon class="e" points="1096.608 1036.323 48.802 1558.791 246.88 1567.403 1303.299 1039.194 1096.608 1036.323"/><polygon class="e" points="1920.5 1042.065 2928.116 1550.179 2945.34 1452.575 2109.966 1033.453 1920.5 1042.065"/><rect class="d" x="31.52" y="599.9767" width="2923.2" height="467.9244"/><rect class="d" x="1265.9796" y="80.28" width="467.9244" height="1506.24"/><rect class="e" x="1357.8421" y="94.68" width="281.3288" height="1474.56"/><rect class="e" x="31.52" y="691.8392" width="2923.2" height="281.3288"/></g></svg>