<svg xmlns="http://www.w3.org/2000/svg" xmlns:xlink="http://www.w3.org/1999/xlink" width="43.307mm" height="38.354mm" viewBox="0 0 122.76 108.72"><defs><style>.a{fill:none;}.b{fill:#fff;}.c{clip-path:url(#a);}.d{fill:#b0b0b0;}</style><clipPath id="a"><polygon class="a" points="0.927 2.034 1.482 106.711 64.587 107.652 64.587 53.844 64.587 0.732 0.927 2.034"/></clipPath></defs><title>Epget_logo_feher</title><path class="b" d="M80.8462,16.7927l-3.0868-.0041,3.81-6.8358h4.6832"/><rect class="b" x="73.0912" y="58.8614" width="13.904" height="5.1407"/><rect class="b" x="73.0912" y="70.5614" width="13.904" height="5.1407"/><rect class="b" x="73.0912" y="84.1651" width="13.904" height="5.1407"/><rect class="b" x="73.0912" y="19.8914" width="13.904" height="5.1407"/><rect class="b" x="73.0912" y="31.5914" width="13.904" height="5.1407"/><rect class="b" x="73.0912" y="45.1951" width="13.904" height="5.1407"/><path class="b" d="M96.2064,19.7418H91.0685v16.99h4.6091C109.0453,36.7322,108.82,19.7418,96.2064,19.7418Zm1.014,11.85H95.441V25.0321h1.9835C102.2943,25.0321,102.3811,31.5914,97.22,31.5914Z"/><rect class="b" x="77.6512" y="32.3814" width="30.4389" height="5.1407" transform="translate(57.9189 127.8224) rotate(-90)"/><rect class="b" x="90.2836" y="58.8614" width="13.904" height="5.1407"/><rect class="b" x="82.0161" y="71.5374" width="30.4389" height="5.1407" transform="translate(23.1278 171.3434) rotate(-90)"/><rect class="b" x="60.4421" y="32.5406" width="30.4389" height="5.1407" transform="translate(40.5507 110.7725) rotate(-90)"/><rect class="b" x="60.4421" y="71.5374" width="30.4389" height="5.1407" transform="translate(1.5538 149.7694) rotate(-90)"/><g class="c"><path class="d" d="M62.1422,9.8851c-27.7358,0-50.22,19.9954-50.22,44.6609s22.4842,44.6609,50.22,44.6609,50.22-19.9953,50.22-44.6609S89.878,9.8851,62.1422,9.8851Zm0,84.346c-24.6455,0-44.6248-17.7676-44.6248-39.6851S37.4967,14.861,62.1422,14.861,106.767,32.6286,106.767,54.546,86.7878,94.2311,62.1422,94.2311Z"/><path class="b" d="M64.5873,19.7441c0,1.6466-.0082,3.5167-.0082,5.2171-9.97-.0028-21.3376,3.9825-27.7086,10.5833C31.8118,40.7858,29.028,47.0219,29.2,54.0609c.4306,17.623,14.6916,27.0292,28.8023,28.7047,0-5.4517.0041-13.1381.0041-18.8957H45.098V58.7292H64.5873c0,4.554-.0041,11.253-.0041,15.6918V88.9759c-12.9336,0-22.9533-2.93-32.2382-12.7632-10.9727-11.62-11.7871-25.2137-5.1276-37.0541C34.3432,26.4892,49.6473,19.7441,64.5873,19.7441Z"/><polygon class="d" points="56.8 98.362 66.28 98.362 64.585 107.242 58.78 107.242 56.8 98.362"/><polygon class="d" points="66.66 10.884 57.18 10.884 58.875 2.004 64.68 2.004 66.66 10.884"/><polygon class="d" points="25.239 83.465 32.258 89.837 25.033 95.272 20.736 91.37 25.239 83.465"/><polygon class="d" points="12.821 49.62 12.821 59.1 3.941 57.405 3.941 51.6 12.821 49.62"/><polygon class="d" points="32.51 19.109 25.286 25.249 20.827 17.385 25.25 13.625 32.51 19.109"/></g></svg>