<svg xmlns="http://www.w3.org/2000/svg" width="160mm" height="160mm" viewBox="0 0 453.5433 453.5433"><title>Facebook_logo_black</title><path d="M226.5774,4.4818C349.0945,4.1386,448.38,103.149,449.0638,226.3528c.6806,122.5349-98.9935,222.4757-222.1147,222.7092C104.0823,449.295,4.404,349.678,4.4761,226.7259A222.1259,222.1259,0,0,1,226.5774,4.4818ZM190.0686,225.7457v136.967H247.24V225.6667h38.4024c1.6625-16.1522,3.2764-31.8322,4.9681-48.2672H247.671a11.6636,11.6636,0,0,1-.5543-2.102c-.0376-8.4944-.14-16.99-.0384-25.4833.1227-10.22,4.1271-14.085,14.3659-14.1083,9.2836-.0212,18.5673-.0045,28.0985-.0045V88.4184c-13.5935,0-26.8847-.05-40.1751.0294a91.5561,91.5561,0,0,0-12.4627.6656c-23.9284,3.4437-39.237,16.8281-44.649,39.5579a102.6317,102.6317,0,0,0-2.21,19.7837c-.36,9.4454-.0916,18.9148-.0916,29.0278H163.1094v48.2629Z"/></svg>