<svg xmlns="http://www.w3.org/2000/svg" width="160mm" height="160mm" viewBox="0 0 453.5433 453.5433"><defs><style>.a{fill:#fff;}</style></defs><title>Facebook_logo</title><path class="a" d="M226.4052,5.08c122.517-.3432,221.8021,98.6673,222.4864,221.871.6806,122.535-98.9935,222.4758-222.1148,222.7093C103.91,449.8931,4.2317,350.2761,4.3039,227.3241A222.1259,222.1259,0,0,1,226.4052,5.08ZM189.8964,226.3438v136.967h57.1713V226.2649H285.47c1.6625-16.1522,3.2764-31.8322,4.968-48.2673H247.4988a11.6633,11.6633,0,0,1-.5543-2.1019c-.0376-8.4945-.1405-16.99-.0384-25.4834.1227-10.22,4.1271-14.0849,14.3658-14.1083,9.2837-.0212,18.5674-.0045,28.0985-.0045V89.0165c-13.5934,0-26.8846-.05-40.175.03a91.5561,91.5561,0,0,0-12.4627.6655c-23.9284,3.4438-39.237,16.8281-44.6491,39.558a102.6474,102.6474,0,0,0-2.21,19.7837c-.36,9.4454-.0915,18.9147-.0915,29.0277H162.9372v48.2629Z"/></svg>