<svg xmlns="http://www.w3.org/2000/svg" width="200mm" height="200mm" viewBox="0 0 566.9291 566.9291"><defs><style>.a,.b{fill:#fff;}.a{fill-rule:evenodd;}.b{stroke:#fff;stroke-miterlimit:2.6131;}</style></defs><title>GPK_logo</title><path class="a" d="M206.444,459.7443c-2.8325,5.7552-9.78,14.84-9.78,14.84a16.8459,16.8459,0,0,0,3.0407.4719c1.1768.5187,2.721,1.4986,3.9,1.994a20.94,20.94,0,0,0,2.3544,1.8334c4.1061,3.1757,2.4355,7.0523,1.724,10.8624-.5469,2.9551-1.889,10.0608.0815,12.0827,2.11,2.1917,6.6278,3.4244,6.6278,3.4244s4.4085,1.6556,7.391,1.1344c2.766-.5189,5.8323-7.0974,7.1191-9.7842,1.6724-3.5315,2.575-7.6311,7.7511-7.852a14.2642,14.2642,0,0,0,3.1478-.178q1.7241.4146,3.45.7376a20.8521,20.8521,0,0,0,2.9033,1.4151c4.6553,2.2491,3.8339,6.3965,3.9452,10.2837.0538,2.97.2191,10.2149,2.5711,11.8062,2.5195,1.696,7.2024,1.9381,7.2024,1.9381s.4373.0582,1.0933.1224v-52.57a165.3214,165.3214,0,0,1-49.4047-14.4027s-2.2861,6.0874-5.1183,11.84Z"/><path class="a" d="M168.7226,240.9813c-2.5968-20.771,16.74-30.7332,16.74-30.7332s-14.8872-10.8066-18.9654-16.3711c-4.0806-5.5618-2.9677-19.9777,5.933-28.5093,12.0871-11.581,27.98-20.7221,44.7093-27.7315l13.8025-40.4169c-1.3447-1.5326-2.0545-3.6255-2.9848-5.5853-1.2886-2.6825-2.2771-9.2674-5.0433-9.7351-3.0128-.5184-9.4991,1.15-9.4991,1.15s-4.5176,1.2327-6.6255,3.4109c-1.97,2.0546-.5727,9.1859,0,12.1153.7117,3.8186,2.3823,7.6934-1.6683,10.8691a16.128,16.128,0,0,0-2.438,1.9858c-1.0956.467-2.1891.96-3.2849,1.4515a29.8709,29.8709,0,0,0-3.1241.5767c-5.0926.9285-6.8445-2.9184-9.2264-5.9974-1.8078-2.3694-6.1885-8.1461-9.036-8.0494-3.0382.1224-6.9559,2.67-6.9559,2.67s-4.1875,2.1505-5.7764,4.7344c-1.5074,2.4,1.3421,9.081,2.4915,11.8447,1.5054,3.5749,3.9433,7.0115.6281,10.9783a15.3451,15.3451,0,0,0-1.9982,2.4959c-.9564.6692-1.889,1.3553-2.82,2.037a27.06,27.06,0,0,0-2.9846,1.22c-4.7906,1.9728-7.31-1.411-10.269-3.9581-2.2729-1.9151-7.7749-6.6514-10.5129-5.97-2.9313.7248-6.2719,4.0548-6.2719,4.0548s-3.6155,2.985-4.6529,5.8173c-.9606,2.6695,3.2032,8.6135,4.8992,11.0774,2.22,3.1882,5.3134,6.0253,2.9013,10.6094a14.7879,14.7879,0,0,0-1.3939,2.7662c-.7952.8595-1.5353,1.7538-2.3285,2.6416a21.3339,21.3339,0,0,0-2.7127,1.85c-4.2967,2.9137-7.4468.1223-10.8687-1.7282-2.6291-1.4367-8.98-4.9428-11.5273-3.6817-2.71,1.34-5.2859,5.2831-5.2859,5.2831s-2.9289,3.6585-3.3385,6.6689c-.3836,2.8064,4.9,7.7343,7.0909,9.7863,2.82,2.6695,6.463,4.7965,5.0369,9.78a14.4339,14.4339,0,0,0-.7932,3.0083c-.6307,1.0569-1.2586,2.11-1.8355,3.182a19.7261,19.7261,0,0,0-2.1614,2.2383c-3.5876,3.727-7.258,1.69-10.98.594-2.8754-.8618-9.8038-2.9634-12.0488-1.2092-2.3818,1.8828-4.0522,6.2483-4.0522,6.2483s-2.1081,4.2113-1.8891,7.23c.1905,2.83,6.4067,6.557,8.98,8.09,3.3149,2.02,7.3115,3.375,6.9556,8.5125a16.6489,16.6489,0,0,0-.1372,3.1392c-.3818,1.1453-.8213,2.314-1.177,3.5a19.38,19.38,0,0,0-1.6148,2.6268c-2.7383,4.4-6.7652,3.1411-10.6245,2.8493-2.9848-.2272-10.2151-.8426-12.0206,1.33-1.9446,2.3135-2.6845,6.9558-2.6845,6.9558s-1.2031,4.5438-.3562,7.4748c.7958,2.7081,7.64,5.0689,10.46,6.0509,3.6688,1.2586,7.8587,1.7542,8.6006,6.8573a15.6238,15.6238,0,0,0,.5187,3.15c-.0554.5191-.1348,1.0143-.1907,1.5333-.0835.65-.1094,1.265-.165,1.874a25.9024,25.9024,0,0,0-1.1236,3.109c-1.7518,4.8909-5.9417,4.4943-9.8012,5.0156-2.959.3707-10.16,1.2886-11.474,3.78-1.4238,2.676-1.1771,7.3652-1.1771,7.3652s-.2206,4.6979,1.2053,7.3764c1.3419,2.4892,8.5422,3.3833,11.4993,3.7566,3.8619.4868,8.0494.0812,9.8313,4.9426a15.4228,15.4228,0,0,0,1.0679,2.7958c.1371,1.2332.3,2.4446.4375,3.6621-.1374.89-.3281,1.8163-.4375,3.1714-.684,5.1377-4.8741,5.6331-8.5168,6.9475-2.82.982-9.6942,3.3662-10.46,6.0939-.8211,2.929.3816,7.4406.3816,7.4406s.7676,4.6421,2.7148,6.96c1.8334,2.1764,9.0614,1.5287,12.0183,1.2844,3.89-.3171,9.2846.4525,13.9029,8.0471.3412.5621-.2355.3735,0,0,2.3052-3.6386,19.68-12.7235,25.9108-13.5022a171.3344,171.3344,0,0,1-6.3274-66.9169c.5233-5.0775,1.8846-22.2485,4.8526-29.2943,2.9675-7.0482,13.0582-25.9,25.1989-21.1915,8.7375,3.3877,24.8729,14.514,24.8729,14.514Z"/><path class="a" d="M208.7167,268.1939c-8.4612,2.528-20.4472.4377-25.7841-4.3034l-33.8,90.2353a72.9229,72.9229,0,0,0-9.3231-.6731,67.2056,67.2056,0,1,0,34.94,10.226c-.4268-.27,33.9665-95.4848,33.9665-95.4848Z"/><path class="a" d="M204.0917,207.6883c6.4627-.4977,16.9628,3.7692,23.3676,10.2966,0,0,29.0653-76.1567,29.8068-78.3826.7419-2.2232,3.3369-1.11,3.3369-1.11V77.6643l-5.9332-.7419L204.0917,207.6883Z"/><polygon class="a" points="302.793 15.735 284.828 15.735 280.694 15.735 262.704 15.735 262.754 30.23 280.694 30.23 284.828 30.23 302.737 30.23 302.793 15.735 302.793 15.735"/><polygon class="a" points="298.873 306.417 267.269 306.417 267.269 93.317 298.873 93.317 298.873 306.417 298.873 306.417"/><path class="a" d="M189.7875,360.3614,207.79,346.3167s6.628,17.1861,20.9686,24.11l-18.496,16.4418s-6.63-15.6269-20.4754-26.5069Z"/><path class="b" d="M262.8694,278.9174s-5.6266-25.9194-13.6889-33.6066l13.6889,6.1472v27.4594"/><path class="a" d="M359.469,459.7443c2.8343,5.7552,9.78,14.84,9.78,14.84a16.7909,16.7909,0,0,1-3.04.4719c-1.175.5187-2.7189,1.4986-3.8986,1.994a21.1234,21.1234,0,0,1-2.3543,1.8334c-4.1061,3.1757-2.4357,7.0523-1.7238,10.8624.5469,2.9551,1.8888,10.0608-.0817,12.0827-2.11,2.1917-6.6276,3.4244-6.6276,3.4244s-4.4087,1.6556-7.3933,1.1344c-2.7639-.5189-5.83-7.0974-7.1167-9.7842-1.6727-3.5315-2.5753-7.6311-7.7514-7.852a14.2562,14.2562,0,0,1-3.1478-.178q-1.7236.4146-3.45.7376a20.8521,20.8521,0,0,1-2.9033,1.4151c-4.6553,2.2491-3.8339,6.3965-3.9452,10.2837-.0538,2.97-.2188,10.2149-2.5711,11.8062-2.5213,1.696-7.2024,1.9381-7.2024,1.9381s-.4373.0582-1.0959.1224v-52.57a165.3137,165.3137,0,0,0,49.4073-14.4027s2.2861,6.0874,5.1165,11.84Z"/><path class="a" d="M397.1945,240.9813c2.5963-20.771-16.74-30.7332-16.74-30.7332S395.34,199.4415,399.42,193.877c4.0783-5.5618,2.9654-19.9777-5.9353-28.5093-12.0869-11.581-27.98-20.7221-44.7093-27.7315l-13.8-40.4169c1.3424-1.5326,2.0522-3.6255,2.9846-5.5853,1.2865-2.6825,2.2773-9.2674,5.0414-9.7351,3.0126-.5184,9.4989,1.15,9.4989,1.15s4.5176,1.2327,6.6257,3.4109c1.9726,2.0546.5744,9.1859,0,12.1153-.7119,3.8186-2.3823,7.6934,1.67,10.8691a16.3288,16.3288,0,0,1,2.4382,1.9858c1.0958.467,2.1891.96,3.2828,1.4515a29.7294,29.7294,0,0,1,3.1217.5767c5.095.9285,6.8449-2.9184,9.2311-5.9974,1.8078-2.3694,6.1862-8.1461,9.0337-8.0494,3.0407.1224,6.9556,2.67,6.9556,2.67s4.19,2.1505,5.7769,4.7344c1.5072,2.4-1.34,9.081-2.4917,11.8447-1.5031,3.5749-3.9431,7.0115-.6281,10.9783a15.1091,15.1091,0,0,1,1.9984,2.4959c.9564.6692,1.889,1.3553,2.82,2.037a26.9008,26.9008,0,0,1,2.9843,1.22c4.7924,1.9728,7.31-1.411,10.269-3.9581,2.2729-1.9151,7.777-6.6514,10.5153-5.97,2.9289.7248,6.27,4.0548,6.27,4.0548s3.6155,2.985,4.6555,5.8173c.9582,2.6695-3.2058,8.6135-4.9018,11.0774-2.2173,3.1882-5.3134,6.0253-2.9015,10.6094a14.9347,14.9347,0,0,1,1.3961,2.7662c.7932.8595,1.5333,1.7538,2.3265,2.6416a21.3268,21.3268,0,0,1,2.7127,1.85c4.299,2.9137,7.4468.1223,10.8687-1.7282,2.6291-1.4367,8.9824-4.9428,11.53-3.6817,2.7105,1.34,5.2836,5.2831,5.2836,5.2831s2.9308,3.6585,3.34,6.6689c.3818,2.8064-4.9016,7.7343-7.0927,9.7863-2.82,2.6695-6.4607,4.7965-5.0369,9.78a14.1636,14.1636,0,0,1,.7934,3.0083c.6305,1.0569,1.2584,2.11,1.8355,3.182a19.9108,19.9108,0,0,1,2.1635,2.2383c3.5873,3.727,7.2559,1.69,10.9781.594,2.878-.8618,9.8038-2.9634,12.0506-1.2092,2.38,1.8828,4.05,6.2483,4.05,6.2483s2.1081,4.2113,1.8893,7.23c-.1907,2.83-6.4051,6.557-8.98,8.09-3.3129,2.02-7.3118,3.375-6.954,8.5125a16.576,16.576,0,0,1,.1352,3.1392c.3819,1.1453.8214,2.314,1.1774,3.5a19.167,19.167,0,0,1,1.6163,2.6268c2.7383,4.4,6.7634,3.1411,10.6226,2.8493,2.9849-.2272,10.2154-.8426,12.0207,1.33,1.9446,2.3135,2.6847,6.9558,2.6847,6.9558s1.205,4.5438.356,7.4748c-.7955,2.7081-7.64,5.0689-10.46,6.0509-3.6688,1.2586-7.8584,1.7542-8.5985,6.8573a15.75,15.75,0,0,1-.5208,3.15c.0554.5191.1371,1.0143.1907,1.5333.0835.65.1117,1.265.1653,1.874a25.5642,25.5642,0,0,1,1.1233,3.109c1.7542,4.8909,5.9415,4.4943,9.8033,5.0156,2.9569.3707,10.1574,1.2886,11.4719,3.78,1.4238,2.676,1.1791,7.3652,1.1791,7.3652s.2189,4.6979-1.205,7.3764c-1.3442,2.4892-8.5427,3.3833-11.4993,3.7566-3.8639.4868-8.0515.0812-9.8313,4.9426a15.7758,15.7758,0,0,1-1.0679,2.7958c-.1394,1.2332-.3024,2.4446-.44,3.6621.1371.89.33,1.8163.44,3.1714.6819,5.1377,4.8718,5.6331,8.5171,6.9475,2.82.982,9.6916,3.3662,10.4594,6.0939.8208,2.929-.3839,7.4406-.3839,7.4406s-.7676,4.6421-2.7125,6.96c-1.8354,2.1764-9.0614,1.5287-12.02,1.2844-3.8874-.3171-9.2846.4525-13.9031,8.0471-.3389.5621.2357.3735,0,0-2.3052-3.6386-19.68-12.7235-25.9108-13.5022a171.3285,171.3285,0,0,0,6.3254-66.9169c-.5211-5.0775-1.8828-22.2485-4.85-29.2943-2.9676-7.0482-13.0562-25.9-25.1989-21.1915-8.7378,3.3877-24.8709,14.514-24.8709,14.514Z"/><path class="a" d="M356.6277,268.1445c8.4827,2.4488,20.45.2488,25.7416-4.5391l34.6313,89.9181a73.087,73.087,0,0,1,9.3165-.7613,67.21,67.21,0,1,1-34.8437,10.55c.4248-.2724-34.8457-95.1674-34.8457-95.1674Z"/><path class="a" d="M361.8229,207.6883c-6.4623-.4977-16.9626,3.7692-23.37,10.2966,0,0-29.0626-76.1567-29.8043-78.3826-.7419-2.2232-3.339-1.11-3.339-1.11V77.6643l5.9353-.7419,50.5779,130.7659Z"/><path class="a" d="M376.1273,360.3614l-18.0028-14.0447s-6.6278,17.1861-20.9686,24.11l18.4986,16.4418s6.6273-15.6269,20.4728-26.5069Z"/><path class="a" d="M353.87,267.6987a13.84,13.84,0,0,1-6.5614-5.9994,53.4056,53.4056,0,0,0-12.0483,20.2s8.7592-10.811,18.61-14.201Z"/><path class="b" d="M303.0454,278.9174s5.6268-25.9194,13.6889-33.6066l-13.6889,6.1472v27.4594"/><polygon class="a" points="296.375 553.203 270.31 553.203 270.31 370.302 296.375 370.302 296.375 553.203 296.375 553.203"/><path class="a" d="M212.0448,267.6987a13.85,13.85,0,0,0,6.5634-5.9994,53.3911,53.3911,0,0,1,12.046,20.2s-8.7592-10.811-18.6094-14.201Z"/><path class="a" d="M314.7121,40.2132H252.4205c-12.2309,0-22.1521,9.1021-22.1521,20.3339,0,11.2122,9.9212,20.2946,22.1521,20.2946h62.2916c12.2286,0,22.1479-9.0824,22.1479-20.2946C336.86,49.3153,326.9407,40.2132,314.7121,40.2132Zm-62.0579,29.661a9.6222,9.6222,0,1,1,9.6317-9.621A9.6227,9.6227,0,0,1,252.6542,69.8742Zm61.5694,0a9.6222,9.6222,0,1,1,9.6318-9.621A9.6225,9.6225,0,0,1,314.2236,69.8742Z"/><path class="a" d="M365.8054,214.3354c-8.2127,0-14.9973,3.9152-21.2946,8.7267-7.0309,5.3716-22.6089,19.2791-33.508,50.3768a111.4834,111.4834,0,0,0-5.7615,40.1249H260.6758a111.5478,111.5478,0,0,0-5.7635-40.1249c-10.8994-31.0977-26.4771-45.0052-33.5083-50.3768-6.2973-4.8115-13.08-8.7267-21.2942-8.7267-13.084,0-23.687,10.2385-23.687,22.8766,0,12.649,10.603,22.8789,23.687,22.8789,4.1771,0,8.3065-.7634,11.4116-2.9377a21.6873,21.6873,0,0,0,5.0451-4.7965s25.0918,21.6672,20.274,62.2021c-11.65,3.0426-20.1944,12.863-20.1944,24.5359,0,14.0793,12.4557,25.4824,27.8129,25.4824h78.2149c15.3549,0,27.8109-11.4031,27.8109-25.4824,0-12.0866-9.1627-22.1859-21.4469-24.8321-4.6637-40.3437,20.31-61.9059,20.31-61.9059a21.6873,21.6873,0,0,0,5.0451,4.7965c3.1051,2.1743,7.2345,2.9377,11.412,2.9377,13.0836,0,23.6869-10.23,23.6869-22.8789C389.4923,224.5739,378.889,214.3354,365.8054,214.3354ZM199.0506,248.6345a11.8554,11.8554,0,1,1,11.8855-11.8384A11.8165,11.8165,0,0,1,199.0506,248.6345Zm45.7022,102.1722a12.0816,12.0816,0,1,1,12.0935-12.0827A12.0819,12.0819,0,0,1,244.7528,350.8067ZM334.152,338.724a12.0816,12.0816,0,1,1-12.0911-12.08A12.0847,12.0847,0,0,1,334.152,338.724Zm32.7123-90.0895a11.8554,11.8554,0,1,1,11.83-11.8384A11.8445,11.8445,0,0,1,366.8643,248.6345Z"/></svg>