<svg xmlns="http://www.w3.org/2000/svg" viewBox="0 0 150 184.96"><defs><style>.a{fill:#fff;}.b{fill:#e50000;}.c{fill:#84b746;}.d{fill:#0097d5;}</style></defs><title>MOGI_logo_feher</title><rect width="150" height="184.96"/><rect class="a" x="2.71" y="2.71" width="144.62" height="134.06"/><path class="a" d="M10.8,177.17V145.52H21.35l7.28,20.66h.09l7.33-20.66H46.56v31.65h-7V152.9L31.2,177.17H25.84L17.77,152.9v24.27Zm0,0"/><path class="a" d="M60.78,161.35a10.27,10.27,0,0,0,2.7,7.31,9.32,9.32,0,0,0,7.13,2.88,9.34,9.34,0,0,0,7.13-2.88,11.25,11.25,0,0,0,0-14.62,9.34,9.34,0,0,0-7.13-2.88A9.32,9.32,0,0,0,63.48,154a10.27,10.27,0,0,0-2.7,7.31m-7.25,0q0-7.5,4.79-12.07a17.08,17.08,0,0,1,12.29-4.56,17.08,17.08,0,0,1,12.29,4.56q4.78,4.56,4.79,12.07T82.9,173.42A17.08,17.08,0,0,1,70.61,178a17,17,0,0,1-12.29-4.58,15.93,15.93,0,0,1-4.79-12.05"/><path class="a" d="M124.12,158.4v16.54a28.15,28.15,0,0,1-13.26,3,17,17,0,0,1-12.28-4.58,16,16,0,0,1-4.77-12.05q0-7.51,4.78-12.07a17.09,17.09,0,0,1,12.29-4.56q8.22,0,12.61,4.07l-4.91,5.37a10.08,10.08,0,0,0-7.7-3,9.35,9.35,0,0,0-7.13,2.88,11.25,11.25,0,0,0,0,14.62,9.35,9.35,0,0,0,7.13,2.88,13.3,13.3,0,0,0,6.57-1.56v-5.14h-5.67V158.4Zm0,0"/><rect class="a" x="134.89" y="145.52" width="6.98" height="31.65"/><path class="b" d="M49.12,80.08c-.07.15.34.48-.4.27-2.33-.7-3.78-2.11-5.83-3.31l-.29.13a27.06,27.06,0,0,1-4-4.11,26.77,26.77,0,0,1-5.52-9.16c-.07.12-.13.19-.28-.14a21.16,21.16,0,0,1-1.1-5.63,6.17,6.17,0,0,1-.12-1c-.07-.24-.15-.3-.21-.34a18.81,18.81,0,0,1,.08-2.66A27.35,27.35,0,0,1,50.73,28.52,25.52,25.52,0,0,1,58.51,27a26.56,26.56,0,0,1,12,3.1c0-1.47,8.1,3.59,7.11,1.91,2.09,1.71,4.67,4.84,5,4.89.79.13,3.55.91,6.67,8,1.26,2.82,1.45,7.5,1.69,8.52.43,1.65.1-3.94.54-2.32A33.72,33.72,0,0,0,72.23,24.83,34.44,34.44,0,0,0,39.56,27a39.41,39.41,0,0,0-9.2,9,34.08,34.08,0,0,0-6.13,20.52,33.41,33.41,0,0,0,8,20.86,34,34,0,0,0,12.82,9.38l1.13.45c6.87,2.8,16.21,2.45,21.9,0A33.16,33.16,0,0,0,75.36,83a24.2,24.2,0,0,1-3.28,1.34,22.64,22.64,0,0,0,5.54-3.66c4.18-4.21,1.29-2.27-.72-1.34-1.36.76,0-.83-2.09.33A27.41,27.41,0,0,0,78.14,77c0-.25-4,3.5-3.32,2.36A22,22,0,0,0,78.68,76c-.55.29-4.47,3.76-4.54,3.22.75-.45,4-2.6,3.88-3.15a23.12,23.12,0,0,0-1.89,1.55c3.73-3.56,4.93-6.07,1.62-3a25.35,25.35,0,0,0,3.47-4.18h0c-.5.67-1.4,1.78-1.84,2.4L81,70.58l-.44.3-1.31,1.67,1.09-1.5a14.88,14.88,0,0,0-1.24,1A42.3,42.3,0,0,1,75,75.48a26.43,26.43,0,0,1-25.83,4.6"/><path class="c" d="M77.7,35.58c-.09-.14-.58,0,0-.49,1.78-1.66,3.72-2.21,5.77-3.38l0-.33A27.42,27.42,0,0,1,89.06,30a26.56,26.56,0,0,1,10.69-.2c-.06-.12-.09-.21.27-.17a20.78,20.78,0,0,1,5.42,1.86,8.53,8.53,0,0,1,.88.36.5.5,0,0,0,.4,0A17.87,17.87,0,0,1,109,33.2a27.35,27.35,0,0,1,12.56,29.56,25.89,25.89,0,0,1-2.6,7.47,26.78,26.78,0,0,1-8.7,8.85c1.27.76-7.15,5.22-5.2,5.2-2.53,1-6.53,1.62-6.72,1.85-.51.63-2.56,2.62-10.3,1.76-3.06-.32-7.21-2.49-8.22-2.8-1.64-.45,3.37,2.06,1.74,1.62A33.67,33.67,0,0,0,114,83.21a34.43,34.43,0,0,0,14.44-29.39,39.45,39.45,0,0,0-3.23-12.48A34.05,34.05,0,0,0,110.5,25.77a33.41,33.41,0,0,0-22.07-3.49,34.23,34.23,0,0,0-14.53,6.4l-1,.77C67.08,34,62.72,42.26,62,48.39A33.1,33.1,0,0,0,62,56.83a23.65,23.65,0,0,1,.48-3.51,22.76,22.76,0,0,0,.4,6.63c1.55,5.73,1.33,2.25,1.53,0,0-1.57.7.43.75-2a28,28,0,0,0,.66,4.23c.2.15-1-5.17-.38-4.06a22.39,22.39,0,0,0,1,5c0-.62-1-5.75-.51-5.54,0,.88.28,4.72.78,4.93a20.87,20.87,0,0,0-.39-2.41c1.21,5,2.79,7.31,1.74,2.88A25.81,25.81,0,0,0,70,68.19v0c-.33-.76-.84-2.09-1.16-2.79L70,68l0-.53-.78-2,.75,1.69c-.06-.48-.15-1-.28-1.59a39.86,39.86,0,0,1-.85-5.31A26.4,26.4,0,0,1,77.7,35.58"/><path class="d" d="M101.61,82.6c.16,0,.25-.53.44.21.55,2.37,0,4.34,0,6.7l.26.2a27,27,0,0,1-1.55,5.54,26.62,26.62,0,0,1-5.17,9.36c.14,0,.24,0,0,.32a21,21,0,0,1-4.33,3.76,6,6,0,0,1-.75.58c-.18.18-.19.28-.19.35A19,19,0,0,1,88,110.88,27.35,27.35,0,0,1,56.15,107,25.69,25.69,0,0,1,51,101,26.48,26.48,0,0,1,47.67,89c-1.3.72-1-8.81-1.91-7.11.44-2.67,1.86-6.46,1.76-6.74-.29-.76-1-3.53,3.62-9.81,1.81-2.49,5.77-5,6.54-5.71,1.21-1.2-3.47,1.89-2.28.69A33.69,33.69,0,0,0,42.21,90.22a34.47,34.47,0,0,0,18.23,27.2,39.38,39.38,0,0,0,12.43,3.44,34.12,34.12,0,0,0,20.84-5,33.47,33.47,0,0,0,14.05-17.37,34.08,34.08,0,0,0,1.72-15.79l-.19-1.2c-1-7.36-6-15.27-10.9-19A32.58,32.58,0,0,0,91,58.41a25.12,25.12,0,0,1,2.8,2.17,22.87,22.87,0,0,0-5.94-3c-5.74-1.52-2.62,0-.81,1.3,1.35.8-.72.39,1.34,1.64a28.35,28.35,0,0,0-4-1.54c-.24.1,5,1.67,3.7,1.7a21.83,21.83,0,0,0-4.87-1.65c.53.33,5.49,2,5.06,2.32-.77-.43-4.23-2.11-4.67-1.78a21.24,21.24,0,0,0,2.29.86c-5-1.45-7.72-1.24-3.36.07a26.69,26.69,0,0,0-5.36-.92h0c.82.1,2.24.32,3,.4l-2.8-.29.48.23,2.1.3-1.85-.19c.46.19,1,.37,1.53.55a40.51,40.51,0,0,1,5,1.92,26.42,26.42,0,0,1,16.9,20.06"/><path class="b" d="M49.12,80.08c-.07.15.34.48-.4.27-2.33-.7-3.78-2.11-5.83-3.31l-.29.13a27.06,27.06,0,0,1-4-4.11,26.77,26.77,0,0,1-5.52-9.16c-.07.12-.13.19-.28-.14a21.16,21.16,0,0,1-1.1-5.63,6.17,6.17,0,0,1-.12-1c-.07-.24-.15-.3-.21-.34a18.81,18.81,0,0,1,.08-2.66A27.35,27.35,0,0,1,50.73,28.52,25.52,25.52,0,0,1,58.51,27c8-1.62,7.7-.61,13.72-2.21A34.44,34.44,0,0,0,39.56,27a39.41,39.41,0,0,0-9.2,9,34.08,34.08,0,0,0-6.13,20.52,33.41,33.41,0,0,0,8,20.86,34,34,0,0,0,12.82,9.38l1.13.45c6.87,2.8,16.21,2.45,21.9,0A33.16,33.16,0,0,0,75.36,83a24.2,24.2,0,0,1-3.28,1.34,22.64,22.64,0,0,0,5.54-3.66c4.18-4.21,1.29-2.27-.72-1.34-1.36.76,0-.83-2.09.33A27.41,27.41,0,0,0,78.14,77c0-.25-4,3.5-3.32,2.36A22,22,0,0,0,78.68,76c-.55.29-4.47,3.76-4.54,3.22.75-.45,4-2.6,3.88-3.15a23.12,23.12,0,0,0-1.89,1.55c3.73-3.56,4.93-6.07,1.62-3a25.35,25.35,0,0,0,3.47-4.18h0c-.5.67-1.4,1.78-1.84,2.4L81,70.58l-.44.3-1.31,1.67,1.09-1.5a14.88,14.88,0,0,0-1.24,1A42.3,42.3,0,0,1,75,75.48a26.43,26.43,0,0,1-25.83,4.6"/></svg>